<?xml version="1.0" encoding="UTF-8" standalone="no"?>
<!DOCTYPE svg PUBLIC "-//W3C//DTD SVG 1.1//EN"
 "http://www.w3.org/Graphics/SVG/1.1/DTD/svg11.dtd">
<!-- Generated by graphviz version 2.43.0 (0)
 -->
<!-- Title: message_flow Pages: 1 -->
<svg width="486pt" height="1093pt"
 viewBox="0.00 0.00 486.00 1093.00" xmlns="http://www.w3.org/2000/svg" xmlns:xlink="http://www.w3.org/1999/xlink">
<g id="graph0" class="graph" transform="scale(1 1) rotate(0) translate(36 1057)">
<title>message_flow</title>
<polygon fill="white" stroke="transparent" points="-36,36 -36,-1057 450,-1057 450,36 -36,36"/>
<text text-anchor="middle" x="207" y="-1007.4" font-family="Helvetica,sans-Serif" font-size="12.00">One servo period — message flow</text>
<g id="clust1" class="cluster">
<title>cluster_pc_out</title>
<polygon fill="white" stroke="#3a3a8a" points="8,-822 8,-992 294,-992 294,-822 8,-822"/>
<text text-anchor="middle" x="151" y="-980.8" font-family="Helvetica,sans-Serif" font-size="9.00" fill="#3a3a8a">PC</text>
</g>
<g id="clust2" class="cluster">
<title>cluster_rp</title>
<polygon fill="white" stroke="#2a7a2a" points="37,-187 37,-794 375,-794 375,-187 37,-187"/>
<text text-anchor="middle" x="206" y="-782.8" font-family="Helvetica,sans-Serif" font-size="9.00" fill="#2a7a2a">RP2040</text>
</g>
<g id="clust3" class="cluster">
<title>cluster_pc_in</title>
<polygon fill="white" stroke="#3a3a8a" points="186,-8 186,-159 406,-159 406,-8 186,-8"/>
<text text-anchor="middle" x="296" y="-147.8" font-family="Helvetica,sans-Serif" font-size="9.00" fill="#3a3a8a">PC</text>
</g>
<!-- WP -->
<g id="node1" class="node">
<title>WP</title>
<polygon fill="#dce7f5" stroke="#3a3a8a" points="229.5,-966 72.5,-966 72.5,-922 229.5,-922 229.5,-966"/>
<text text-anchor="middle" x="151" y="-947" font-family="Helvetica,sans-Serif" font-size="10.00" fill="#111111">1 &#160;write_port()</text>
<text text-anchor="middle" x="151" y="-936" font-family="Helvetica,sans-Serif" font-size="10.00" fill="#111111">(every servo period, ~1 ms)</text>
</g>
<!-- TX -->
<g id="node2" class="node">
<title>TX</title>
<polygon fill="#dce7f5" stroke="#3a3a8a" points="285.5,-885 16.5,-885 16.5,-830 285.5,-830 285.5,-885"/>
<text text-anchor="middle" x="151" y="-866" font-family="Helvetica,sans-Serif" font-size="10.00" fill="#111111">2 &#160;UDP tx</text>
<text text-anchor="middle" x="151" y="-855" font-family="Helvetica,sans-Serif" font-size="10.00" fill="#111111">MSG_TIMING (seq&#45;out)</text>
<text text-anchor="middle" x="151" y="-844" font-family="Helvetica,sans-Serif" font-size="10.00" fill="#111111">MSG_SET_JOINT_ABS_POS · MSG_SET_GPIO …</text>
</g>
<!-- WP&#45;&gt;TX -->
<g id="edge1" class="edge">
<title>WP&#45;&gt;TX</title>
<path fill="none" stroke="#555555" d="M151,-921.68C151,-913.74 151,-904.47 151,-895.53"/>
<polygon fill="#555555" stroke="#555555" points="154.5,-895.27 151,-885.27 147.5,-895.27 154.5,-895.27"/>
</g>
<!-- RX -->
<g id="node3" class="node">
<title>RX</title>
<polygon fill="#d5f0e0" stroke="#2a7a2a" points="210,-768 92,-768 92,-732 210,-732 210,-768"/>
<text text-anchor="middle" x="151" y="-747.5" font-family="Helvetica,sans-Serif" font-size="10.00" fill="#111111">3 &#160;Core0 rx packet</text>
</g>
<!-- TX&#45;&gt;RX -->
<g id="edge11" class="edge">
<title>TX&#45;&gt;RX</title>
<path fill="none" stroke="#2a7a2a" d="M151,-829.88C151,-814.11 151,-794.17 151,-778.28"/>
<polygon fill="#2a7a2a" stroke="#2a7a2a" points="154.5,-778.03 151,-768.03 147.5,-778.03 154.5,-778.03"/>
<text text-anchor="middle" x="184" y="-804.8" font-family="Helvetica,sans-Serif" font-size="9.00" fill="#2a7a2a"> &#160;UDP / Ethernet</text>
</g>
<!-- UC -->
<g id="node4" class="node">
<title>UC</title>
<polygon fill="#d5f0e0" stroke="#2a7a2a" points="235.5,-695 66.5,-695 66.5,-651 235.5,-651 235.5,-695"/>
<text text-anchor="middle" x="151" y="-676" font-family="Helvetica,sans-Serif" font-size="10.00" fill="#111111">4 &#160;update joint config</text>
<text text-anchor="middle" x="151" y="-665" font-family="Helvetica,sans-Serif" font-size="10.00" fill="#111111">(positions, velocities, enables)</text>
</g>
<!-- RX&#45;&gt;UC -->
<g id="edge2" class="edge">
<title>RX&#45;&gt;UC</title>
<path fill="none" stroke="#555555" d="M151,-731.98C151,-724.15 151,-714.61 151,-705.54"/>
<polygon fill="#555555" stroke="#555555" points="154.5,-705.24 151,-695.24 147.5,-705.24 154.5,-705.24"/>
</g>
<!-- PG -->
<g id="node5" class="node">
<title>PG</title>
<polygon fill="#d5f0e0" stroke="#2a7a2a" points="220.5,-614 81.5,-614 81.5,-570 220.5,-570 220.5,-614"/>
<text text-anchor="middle" x="151" y="-595" font-family="Helvetica,sans-Serif" font-size="10.00" fill="#111111">5 &#160;packet_generation++</text>
<text text-anchor="middle" x="151" y="-584" font-family="Helvetica,sans-Serif" font-size="10.00" fill="#111111">(Core1 unblocked)</text>
</g>
<!-- UC&#45;&gt;PG -->
<g id="edge3" class="edge">
<title>UC&#45;&gt;PG</title>
<path fill="none" stroke="#555555" d="M151,-650.83C151,-642.68 151,-633.2 151,-624.3"/>
<polygon fill="#555555" stroke="#555555" points="154.5,-624.23 151,-614.23 147.5,-624.23 154.5,-624.23"/>
</g>
<!-- CT -->
<g id="node6" class="node">
<title>CT</title>
<polygon fill="#d5f0e0" stroke="#2a7a2a" points="230.5,-524 71.5,-524 71.5,-480 230.5,-480 230.5,-524"/>
<text text-anchor="middle" x="151" y="-505" font-family="Helvetica,sans-Serif" font-size="10.00" fill="#111111">6 &#160;Core1 tick</text>
<text text-anchor="middle" x="151" y="-494" font-family="Helvetica,sans-Serif" font-size="10.00" fill="#111111">(alarm fires: now + period/4)</text>
</g>
<!-- PG&#45;&gt;CT -->
<g id="edge4" class="edge">
<title>PG&#45;&gt;CT</title>
<path fill="none" stroke="#555555" d="M151,-569.7C151,-559.1 151,-546.09 151,-534.39"/>
<polygon fill="#555555" stroke="#555555" points="154.5,-534.11 151,-524.11 147.5,-534.11 154.5,-534.11"/>
<text text-anchor="middle" x="183.5" y="-544.8" font-family="Helvetica,sans-Serif" font-size="9.00" fill="#444444">Core1 unblocks</text>
</g>
<!-- SR -->
<g id="node9" class="node">
<title>SR</title>
<polygon fill="#d5f0e0" stroke="#2a7a2a" points="367,-323 225,-323 225,-268 367,-268 367,-323"/>
<text text-anchor="middle" x="296" y="-304" font-family="Helvetica,sans-Serif" font-size="10.00" fill="#111111">9 &#160;Core0 serialises reply</text>
<text text-anchor="middle" x="296" y="-293" font-family="Helvetica,sans-Serif" font-size="10.00" fill="#111111">Reply_timing (seq&#45;in)</text>
<text text-anchor="middle" x="296" y="-282" font-family="Helvetica,sans-Serif" font-size="10.00" fill="#111111">Reply_joint_movement</text>
</g>
<!-- PG&#45;&gt;SR -->
<g id="edge8" class="edge">
<title>PG&#45;&gt;SR</title>
<path fill="none" stroke="#555555" stroke-dasharray="5,2" d="M195.4,-569.92C204.07,-564.74 212.71,-558.71 220,-552 231.06,-541.81 232.72,-537.67 239,-524 268.26,-460.33 283.94,-379.45 291.07,-333.28"/>
<polygon fill="#555555" stroke="#555555" points="294.57,-333.55 292.59,-323.14 287.65,-332.52 294.57,-333.55"/>
<text text-anchor="middle" x="304" y="-454.8" font-family="Helvetica,sans-Serif" font-size="9.00" fill="#444444">Core0 continues</text>
<text text-anchor="middle" x="304" y="-444.8" font-family="Helvetica,sans-Serif" font-size="9.00" fill="#444444">(parallel with 6–8)</text>
</g>
<!-- DS -->
<g id="node7" class="node">
<title>DS</title>
<polygon fill="#d5f0e0" stroke="#2a7a2a" points="231,-424 71,-424 71,-369 231,-369 231,-424"/>
<text text-anchor="middle" x="151" y="-405" font-family="Helvetica,sans-Serif" font-size="10.00" fill="#111111">7 &#160;do_steps() &#160;×4 joints</text>
<text text-anchor="middle" x="151" y="-394" font-family="Helvetica,sans-Serif" font-size="10.00" fill="#111111">drain PIO1 RX FIFO</text>
<text text-anchor="middle" x="151" y="-383" font-family="Helvetica,sans-Serif" font-size="10.00" fill="#111111">→ config.abs_pos_achieved</text>
</g>
<!-- CT&#45;&gt;DS -->
<g id="edge5" class="edge">
<title>CT&#45;&gt;DS</title>
<path fill="none" stroke="#555555" d="M151,-479.81C151,-466.74 151,-449.61 151,-434.37"/>
<polygon fill="#555555" stroke="#555555" points="154.5,-434.2 151,-424.2 147.5,-434.2 154.5,-434.2"/>
</g>
<!-- PF -->
<g id="node8" class="node">
<title>PF</title>
<polygon fill="#d5f0e0" stroke="#2a7a2a" points="207,-317.5 45,-317.5 45,-273.5 207,-273.5 207,-317.5"/>
<text text-anchor="middle" x="126" y="-298.5" font-family="Helvetica,sans-Serif" font-size="10.00" fill="#111111">8 &#160;PIO0 TX FIFO</text>
<text text-anchor="middle" x="126" y="-287.5" font-family="Helvetica,sans-Serif" font-size="10.00" fill="#111111">step_gen drives step/dir pins</text>
</g>
<!-- DS&#45;&gt;PF -->
<g id="edge6" class="edge">
<title>DS&#45;&gt;PF</title>
<path fill="none" stroke="#555555" d="M144.3,-368.97C141.07,-356.19 137.18,-340.79 133.82,-327.47"/>
<polygon fill="#555555" stroke="#555555" points="137.21,-326.61 131.37,-317.78 130.43,-328.33 137.21,-326.61"/>
</g>
<!-- DS&#45;&gt;SR -->
<g id="edge7" class="edge">
<title>DS&#45;&gt;SR</title>
<path fill="none" stroke="#555588" d="M160.57,-368.77C165.18,-358.96 171.57,-348.45 180,-341 183.49,-337.91 197.85,-331.84 215.34,-325.14"/>
<polygon fill="#555588" stroke="#555588" points="216.61,-328.41 224.73,-321.6 214.13,-321.86 216.61,-328.41"/>
<text text-anchor="middle" x="233" y="-343.8" font-family="Helvetica,sans-Serif" font-size="9.00" fill="#555588">config.abs_pos_achieved</text>
</g>
<!-- TR -->
<g id="node10" class="node">
<title>TR</title>
<polygon fill="#d5f0e0" stroke="#2a7a2a" points="351,-231 241,-231 241,-195 351,-195 351,-231"/>
<text text-anchor="middle" x="296" y="-210.5" font-family="Helvetica,sans-Serif" font-size="10.00" fill="#111111">10 &#160;UDP tx reply</text>
</g>
<!-- SR&#45;&gt;TR -->
<g id="edge9" class="edge">
<title>SR&#45;&gt;TR</title>
<path fill="none" stroke="#555555" d="M296,-267.69C296,-259.2 296,-249.81 296,-241.29"/>
<polygon fill="#555555" stroke="#555555" points="299.5,-241.09 296,-231.09 292.5,-241.09 299.5,-241.09"/>
</g>
<!-- HR -->
<g id="node11" class="node">
<title>HR</title>
<polygon fill="#dce7f5" stroke="#3a3a8a" points="349.5,-133 242.5,-133 242.5,-97 349.5,-97 349.5,-133"/>
<text text-anchor="middle" x="296" y="-112.5" font-family="Helvetica,sans-Serif" font-size="10.00" fill="#111111">11 &#160;HAL rx reply</text>
</g>
<!-- TR&#45;&gt;HR -->
<g id="edge12" class="edge">
<title>TR&#45;&gt;HR</title>
<path fill="none" stroke="#2a7a2a" d="M296,-194.84C296,-180.5 296,-159.81 296,-143.22"/>
<polygon fill="#2a7a2a" stroke="#2a7a2a" points="299.5,-143.01 296,-133.01 292.5,-143.01 299.5,-143.01"/>
<text text-anchor="middle" x="329" y="-169.8" font-family="Helvetica,sans-Serif" font-size="9.00" fill="#2a7a2a"> &#160;UDP / Ethernet</text>
</g>
<!-- HP -->
<g id="node12" class="node">
<title>HP</title>
<polygon fill="#dce7f5" stroke="#3a3a8a" points="398.5,-60 193.5,-60 193.5,-16 398.5,-16 398.5,-60"/>
<text text-anchor="middle" x="296" y="-41" font-family="Helvetica,sans-Serif" font-size="10.00" fill="#111111">12 &#160;HAL pin update</text>
<text text-anchor="middle" x="296" y="-30" font-family="Helvetica,sans-Serif" font-size="10.00" fill="#111111">pos&#45;fb · vel&#45;fb · seq&#45;in · update&#45;overrun</text>
</g>
<!-- HR&#45;&gt;HP -->
<g id="edge10" class="edge">
<title>HR&#45;&gt;HP</title>
<path fill="none" stroke="#555555" d="M296,-96.98C296,-89.15 296,-79.61 296,-70.54"/>
<polygon fill="#555555" stroke="#555555" points="299.5,-70.24 296,-60.24 292.5,-70.24 299.5,-70.24"/>
</g>
</g>
</svg>
