<?xml version="1.0" encoding="UTF-8" standalone="no"?>
<!DOCTYPE svg PUBLIC "-//W3C//DTD SVG 1.1//EN"
 "http://www.w3.org/Graphics/SVG/1.1/DTD/svg11.dtd">
<!-- Generated by graphviz version 2.43.0 (0)
 -->
<!-- Title: pio_stepgen Pages: 1 -->
<svg width="1276pt" height="236pt"
 viewBox="0.00 0.00 1276.00 235.80" xmlns="http://www.w3.org/2000/svg" xmlns:xlink="http://www.w3.org/1999/xlink">
<g id="graph0" class="graph" transform="scale(1 1) rotate(0) translate(36 199.8)">
<title>pio_stepgen</title>
<polygon fill="white" stroke="transparent" points="-36,36 -36,-199.8 1240,-199.8 1240,36 -36,36"/>
<text text-anchor="middle" x="602" y="-150.2" font-family="Helvetica,sans-Serif" font-size="12.00">PIO step generation — per joint</text>
<!-- DS -->
<g id="node1" class="node">
<title>DS</title>
<polygon fill="#f4f4f8" stroke="#3a3a8a" points="82,-98.8 0,-98.8 0,-54.8 82,-54.8 82,-98.8"/>
<text text-anchor="middle" x="41" y="-79.8" font-family="Helvetica,sans-Serif" font-size="10.00" fill="#111111">Core1</text>
<text text-anchor="middle" x="41" y="-68.8" font-family="Helvetica,sans-Serif" font-size="10.00" fill="#111111">do_steps()</text>
</g>
<!-- CALC -->
<g id="node2" class="node">
<title>CALC</title>
<polygon fill="#f4f4f8" stroke="#3a3a8a" points="233,-109.8 119,-109.8 119,-43.8 233,-43.8 233,-109.8"/>
<text text-anchor="middle" x="176" y="-90.8" font-family="Helvetica,sans-Serif" font-size="10.00" fill="#111111">velocity →</text>
<text text-anchor="middle" x="176" y="-79.8" font-family="Helvetica,sans-Serif" font-size="10.00" fill="#111111">pulse length</text>
<text text-anchor="middle" x="176" y="-68.8" font-family="Helvetica,sans-Serif" font-size="10.00" fill="#111111">(133 MHz clock,</text>
<text text-anchor="middle" x="176" y="-57.8" font-family="Helvetica,sans-Serif" font-size="10.00" fill="#111111">9&#45;cycle overhead)</text>
</g>
<!-- DS&#45;&gt;CALC -->
<g id="edge1" class="edge">
<title>DS&#45;&gt;CALC</title>
<path fill="none" stroke="#555555" d="M82.27,-76.8C90.6,-76.8 99.58,-76.8 108.57,-76.8"/>
<polygon fill="#555555" stroke="#555555" points="108.68,-80.3 118.68,-76.8 108.68,-73.3 108.68,-80.3"/>
</g>
<!-- TXFF -->
<g id="node3" class="node">
<title>TXFF</title>
<polygon fill="#f4f4f8" stroke="#3a3a8a" points="423,-98.8 348,-98.8 348,-54.8 423,-54.8 423,-98.8"/>
<text text-anchor="middle" x="385.5" y="-79.8" font-family="Helvetica,sans-Serif" font-size="10.00" fill="#111111">PIO0</text>
<text text-anchor="middle" x="385.5" y="-68.8" font-family="Helvetica,sans-Serif" font-size="10.00" fill="#111111">TX FIFO</text>
</g>
<!-- CALC&#45;&gt;TXFF -->
<g id="edge2" class="edge">
<title>CALC&#45;&gt;TXFF</title>
<path fill="none" stroke="#555555" d="M233.15,-76.8C265.93,-76.8 306.81,-76.8 337.81,-76.8"/>
<polygon fill="#555555" stroke="#555555" points="337.93,-80.3 347.93,-76.8 337.93,-73.3 337.93,-80.3"/>
<text text-anchor="middle" x="290.5" y="-89.6" font-family="Helvetica,sans-Serif" font-size="9.00" fill="#444444">packed word</text>
<text text-anchor="middle" x="290.5" y="-79.6" font-family="Helvetica,sans-Serif" font-size="9.00" fill="#444444">(pulse_len | dir_bit)</text>
</g>
<!-- SG -->
<g id="node4" class="node">
<title>SG</title>
<polygon fill="#f4f4f8" stroke="#3a3a8a" points="554,-98.8 460,-98.8 460,-54.8 554,-54.8 554,-98.8"/>
<text text-anchor="middle" x="507" y="-79.8" font-family="Helvetica,sans-Serif" font-size="10.00" fill="#111111">step_gen SM</text>
<text text-anchor="middle" x="507" y="-68.8" font-family="Helvetica,sans-Serif" font-size="10.00" fill="#111111">(PIO0)</text>
</g>
<!-- TXFF&#45;&gt;SG -->
<g id="edge3" class="edge">
<title>TXFF&#45;&gt;SG</title>
<path fill="none" stroke="#555555" d="M423,-76.8C431.48,-76.8 440.7,-76.8 449.81,-76.8"/>
<polygon fill="#555555" stroke="#555555" points="450,-80.3 460,-76.8 450,-73.3 450,-80.3"/>
</g>
<!-- STEP -->
<g id="node5" class="node">
<title>STEP</title>
<polygon fill="#f4f4f8" stroke="#3a3a8a" points="715,-142.8 644,-142.8 644,-98.8 715,-98.8 715,-142.8"/>
<text text-anchor="middle" x="679.5" y="-123.8" font-family="Helvetica,sans-Serif" font-size="10.00" fill="#111111">step pin</text>
<text text-anchor="middle" x="679.5" y="-112.8" font-family="Helvetica,sans-Serif" font-size="10.00" fill="#111111">(GPIO)</text>
</g>
<!-- SG&#45;&gt;STEP -->
<g id="edge4" class="edge">
<title>SG&#45;&gt;STEP</title>
<path fill="none" stroke="#555555" d="M554.14,-88.71C579.02,-95.13 609.57,-103.01 634.16,-109.36"/>
<polygon fill="#555555" stroke="#555555" points="633.4,-112.77 643.96,-111.88 635.15,-106 633.4,-112.77"/>
<text text-anchor="middle" x="599" y="-118.6" font-family="Helvetica,sans-Serif" font-size="9.00" fill="#444444">square&#45;wave</text>
<text text-anchor="middle" x="599" y="-108.6" font-family="Helvetica,sans-Serif" font-size="9.00" fill="#444444">pulses</text>
</g>
<!-- DIR -->
<g id="node6" class="node">
<title>DIR</title>
<polygon fill="#f4f4f8" stroke="#3a3a8a" points="713,-80.8 646,-80.8 646,-36.8 713,-36.8 713,-80.8"/>
<text text-anchor="middle" x="679.5" y="-61.8" font-family="Helvetica,sans-Serif" font-size="10.00" fill="#111111">dir pin</text>
<text text-anchor="middle" x="679.5" y="-50.8" font-family="Helvetica,sans-Serif" font-size="10.00" fill="#111111">(GPIO)</text>
</g>
<!-- SG&#45;&gt;DIR -->
<g id="edge5" class="edge">
<title>SG&#45;&gt;DIR</title>
<path fill="none" stroke="#555555" d="M554.14,-71.93C579.51,-69.25 610.78,-65.95 635.62,-63.33"/>
<polygon fill="#555555" stroke="#555555" points="636.26,-66.78 645.83,-62.25 635.52,-59.82 636.26,-66.78"/>
<text text-anchor="middle" x="599" y="-72.6" font-family="Helvetica,sans-Serif" font-size="9.00" fill="#444444">direction bit</text>
</g>
<!-- SC -->
<g id="node7" class="node">
<title>SC</title>
<polygon fill="#f4f4f8" stroke="#3a3a8a" points="900,-107.8 797,-107.8 797,-63.8 900,-63.8 900,-107.8"/>
<text text-anchor="middle" x="848.5" y="-88.8" font-family="Helvetica,sans-Serif" font-size="10.00" fill="#111111">step_count SM</text>
<text text-anchor="middle" x="848.5" y="-77.8" font-family="Helvetica,sans-Serif" font-size="10.00" fill="#111111">(PIO1)</text>
</g>
<!-- STEP&#45;&gt;SC -->
<g id="edge6" class="edge">
<title>STEP&#45;&gt;SC</title>
<path fill="none" stroke="#555555" d="M715.1,-113.55C735.84,-109.2 762.8,-103.55 786.97,-98.48"/>
<polygon fill="#555555" stroke="#555555" points="787.71,-101.91 796.78,-96.43 786.27,-95.06 787.71,-101.91"/>
<text text-anchor="middle" x="756" y="-111.6" font-family="Helvetica,sans-Serif" font-size="9.00" fill="#444444">rising edge</text>
</g>
<!-- DIR&#45;&gt;SC -->
<g id="edge7" class="edge">
<title>DIR&#45;&gt;SC</title>
<path fill="none" stroke="#555555" stroke-dasharray="5,2" d="M713.36,-63.62C732.52,-66.47 757.15,-70.22 779,-73.8 781.5,-74.21 784.05,-74.63 786.63,-75.06"/>
<polygon fill="#555555" stroke="#555555" points="786.2,-78.54 796.65,-76.76 787.37,-71.64 786.2,-78.54"/>
<text text-anchor="middle" x="756" y="-86.6" font-family="Helvetica,sans-Serif" font-size="9.00" fill="#444444">direction</text>
<text text-anchor="middle" x="756" y="-76.6" font-family="Helvetica,sans-Serif" font-size="9.00" fill="#444444">monitor</text>
</g>
<!-- RXFF -->
<g id="node8" class="node">
<title>RXFF</title>
<polygon fill="#f4f4f8" stroke="#3a3a8a" points="1043,-107.8 967,-107.8 967,-63.8 1043,-63.8 1043,-107.8"/>
<text text-anchor="middle" x="1005" y="-88.8" font-family="Helvetica,sans-Serif" font-size="10.00" fill="#111111">PIO1</text>
<text text-anchor="middle" x="1005" y="-77.8" font-family="Helvetica,sans-Serif" font-size="10.00" fill="#111111">RX FIFO</text>
</g>
<!-- SC&#45;&gt;RXFF -->
<g id="edge8" class="edge">
<title>SC&#45;&gt;RXFF</title>
<path fill="none" stroke="#555555" d="M900.09,-85.8C918.19,-85.8 938.51,-85.8 956.35,-85.8"/>
<polygon fill="#555555" stroke="#555555" points="956.53,-89.3 966.53,-85.8 956.53,-82.3 956.53,-89.3"/>
<text text-anchor="middle" x="933.5" y="-98.6" font-family="Helvetica,sans-Serif" font-size="9.00" fill="#444444">32&#45;bit</text>
<text text-anchor="middle" x="933.5" y="-88.6" font-family="Helvetica,sans-Serif" font-size="9.00" fill="#444444">counter</text>
</g>
<!-- POS -->
<g id="node9" class="node">
<title>POS</title>
<polygon fill="#f4f4f8" stroke="#3a3a8a" points="1204,-113.3 1080,-113.3 1080,-58.3 1204,-58.3 1204,-113.3"/>
<text text-anchor="middle" x="1142" y="-94.3" font-family="Helvetica,sans-Serif" font-size="10.00" fill="#111111">Core1</text>
<text text-anchor="middle" x="1142" y="-83.3" font-family="Helvetica,sans-Serif" font-size="10.00" fill="#111111">position update</text>
<text text-anchor="middle" x="1142" y="-72.3" font-family="Helvetica,sans-Serif" font-size="10.00" fill="#111111">(abs_pos_achieved)</text>
</g>
<!-- RXFF&#45;&gt;POS -->
<g id="edge9" class="edge">
<title>RXFF&#45;&gt;POS</title>
<path fill="none" stroke="#555555" d="M1043.25,-85.8C1051.47,-85.8 1060.45,-85.8 1069.52,-85.8"/>
<polygon fill="#555555" stroke="#555555" points="1069.77,-89.3 1079.77,-85.8 1069.77,-82.3 1069.77,-89.3"/>
</g>
<!-- POS&#45;&gt;DS -->
<g id="edge10" class="edge">
<title>POS&#45;&gt;DS</title>
<path fill="none" stroke="#888888" stroke-dasharray="5,2" d="M1079.86,-64.15C1067.77,-60.52 1055.08,-57.18 1043,-54.8 899.48,-26.56 861.15,-33.8 715,-27.8 450.32,-16.92 375.25,32.37 119,-34.8 106.68,-38.03 94.19,-43.63 82.96,-49.71"/>
<polygon fill="#888888" stroke="#888888" points="81.22,-46.67 74.25,-54.65 84.67,-52.76 81.22,-46.67"/>
<text text-anchor="middle" x="599" y="-34.6" font-family="Helvetica,sans-Serif" font-size="9.00" fill="#444444">feedback</text>
<text text-anchor="middle" x="599" y="-24.6" font-family="Helvetica,sans-Serif" font-size="9.00" fill="#444444">loop</text>
</g>
</g>
</svg>
