<?xml version="1.0" encoding="UTF-8" standalone="no"?>
<!DOCTYPE svg PUBLIC "-//W3C//DTD SVG 1.1//EN"
 "http://www.w3.org/Graphics/SVG/1.1/DTD/svg11.dtd">
<!-- Generated by graphviz version 2.43.0 (0)
 -->
<!-- Title: recover_clock Pages: 1 -->
<svg width="385pt" height="746pt"
 viewBox="0.00 0.00 384.50 746.00" xmlns="http://www.w3.org/2000/svg" xmlns:xlink="http://www.w3.org/1999/xlink">
<g id="graph0" class="graph" transform="scale(1 1) rotate(0) translate(36 710)">
<title>recover_clock</title>
<polygon fill="white" stroke="transparent" points="-36,36 -36,-710 348.5,-710 348.5,36 -36,36"/>
<text text-anchor="middle" x="156.25" y="-660.4" font-family="Helvetica,sans-Serif" font-size="12.00">recover_clock() — per&#45;packet clock adaptation</text>
<!-- PKT -->
<g id="node1" class="node">
<title>PKT</title>
<polygon fill="#f4f4f8" stroke="#3a3a8a" points="237.5,-653 107.5,-653 107.5,-609 237.5,-609 237.5,-653"/>
<text text-anchor="middle" x="172.5" y="-634" font-family="Helvetica,sans-Serif" font-size="10.00" fill="#111111">UDP packet received</text>
<text text-anchor="middle" x="172.5" y="-623" font-family="Helvetica,sans-Serif" font-size="10.00" fill="#111111">(Core0)</text>
</g>
<!-- MEAS -->
<g id="node2" class="node">
<title>MEAS</title>
<polygon fill="#f4f4f8" stroke="#3a3a8a" points="254,-572 91,-572 91,-528 254,-528 254,-572"/>
<text text-anchor="middle" x="172.5" y="-553" font-family="Helvetica,sans-Serif" font-size="10.00" fill="#111111">measure inter&#45;packet interval</text>
<text text-anchor="middle" x="172.5" y="-542" font-family="Helvetica,sans-Serif" font-size="10.00" fill="#111111">now − last_rx_us</text>
</g>
<!-- PKT&#45;&gt;MEAS -->
<g id="edge1" class="edge">
<title>PKT&#45;&gt;MEAS</title>
<path fill="none" stroke="#555555" d="M172.5,-608.83C172.5,-600.68 172.5,-591.2 172.5,-582.3"/>
<polygon fill="#555555" stroke="#555555" points="176,-582.23 172.5,-572.23 169,-582.23 176,-582.23"/>
</g>
<!-- EMA -->
<g id="node3" class="node">
<title>EMA</title>
<polygon fill="#f4f4f8" stroke="#3a3a8a" points="263,-491 82,-491 82,-436 263,-436 263,-491"/>
<text text-anchor="middle" x="172.5" y="-472" font-family="Helvetica,sans-Serif" font-size="10.00" fill="#111111">EMA update</text>
<text text-anchor="middle" x="172.5" y="-461" font-family="Helvetica,sans-Serif" font-size="10.00" fill="#111111">ave = ave − (ave &gt;&gt; 6) + sample</text>
<text text-anchor="middle" x="172.5" y="-450" font-family="Helvetica,sans-Serif" font-size="10.00" fill="#111111">(accumulator ×64, alpha = 1/64)</text>
</g>
<!-- MEAS&#45;&gt;EMA -->
<g id="edge2" class="edge">
<title>MEAS&#45;&gt;EMA</title>
<path fill="none" stroke="#555555" d="M172.5,-527.68C172.5,-519.74 172.5,-510.47 172.5,-501.53"/>
<polygon fill="#555555" stroke="#555555" points="176,-501.27 172.5,-491.27 169,-501.27 176,-501.27"/>
</g>
<!-- CHG -->
<g id="node4" class="node">
<title>CHG</title>
<polygon fill="#fffbe6" stroke="#3a3a8a" points="172.5,-399 32.5,-366 172.5,-333 312.5,-366 172.5,-399"/>
<text text-anchor="middle" x="172.5" y="-363.5" font-family="Helvetica,sans-Serif" font-size="10.00" fill="#111111">integer period changed?</text>
</g>
<!-- EMA&#45;&gt;CHG -->
<g id="edge3" class="edge">
<title>EMA&#45;&gt;CHG</title>
<path fill="none" stroke="#555555" d="M172.5,-435.9C172.5,-427.64 172.5,-418.32 172.5,-409.27"/>
<polygon fill="#555555" stroke="#555555" points="176,-409.23 172.5,-399.23 169,-409.23 176,-409.23"/>
</g>
<!-- UPD -->
<g id="node5" class="node">
<title>UPD</title>
<polygon fill="#f4f4f8" stroke="#3a3a8a" points="167,-287 0,-287 0,-243 167,-243 167,-287"/>
<text text-anchor="middle" x="83.5" y="-268" font-family="Helvetica,sans-Serif" font-size="10.00" fill="#111111">update_period()</text>
<text text-anchor="middle" x="83.5" y="-257" font-family="Helvetica,sans-Serif" font-size="10.00" fill="#111111">(update alarm callback period)</text>
</g>
<!-- CHG&#45;&gt;UPD -->
<g id="edge4" class="edge">
<title>CHG&#45;&gt;UPD</title>
<path fill="none" stroke="#555555" d="M148.65,-338.47C136.6,-325.06 121.95,-308.77 109.6,-295.03"/>
<polygon fill="#555555" stroke="#555555" points="111.92,-292.37 102.63,-287.28 106.71,-297.05 111.92,-292.37"/>
<text text-anchor="middle" x="133" y="-307.8" font-family="Helvetica,sans-Serif" font-size="9.00" fill="#444444">yes</text>
</g>
<!-- PHASE -->
<g id="node6" class="node">
<title>PHASE</title>
<polygon fill="#f4f4f8" stroke="#3a3a8a" points="200,-206 85,-206 85,-162 200,-162 200,-206"/>
<text text-anchor="middle" x="142.5" y="-187" font-family="Helvetica,sans-Serif" font-size="10.00" fill="#111111">reschedule alarm</text>
<text text-anchor="middle" x="142.5" y="-176" font-family="Helvetica,sans-Serif" font-size="10.00" fill="#111111">at &#160;now + period/4</text>
</g>
<!-- CHG&#45;&gt;PHASE -->
<g id="edge6" class="edge">
<title>CHG&#45;&gt;PHASE</title>
<path fill="none" stroke="#555555" d="M177.97,-334.11C181.28,-309.11 183.49,-273.21 175.5,-243 172.93,-233.27 168.3,-223.47 163.31,-214.77"/>
<polygon fill="#555555" stroke="#555555" points="166.25,-212.86 158.06,-206.14 160.27,-216.5 166.25,-212.86"/>
<text text-anchor="middle" x="186" y="-262.8" font-family="Helvetica,sans-Serif" font-size="9.00" fill="#444444">no</text>
</g>
<!-- UPD&#45;&gt;PHASE -->
<g id="edge5" class="edge">
<title>UPD&#45;&gt;PHASE</title>
<path fill="none" stroke="#555555" d="M99.31,-242.83C105.86,-234.06 113.56,-223.75 120.64,-214.28"/>
<polygon fill="#555555" stroke="#555555" points="123.47,-216.34 126.65,-206.23 117.86,-212.15 123.47,-216.34"/>
</g>
<!-- PG -->
<g id="node7" class="node">
<title>PG</title>
<polygon fill="#f4f4f8" stroke="#3a3a8a" points="206.5,-125 78.5,-125 78.5,-81 206.5,-81 206.5,-125"/>
<text text-anchor="middle" x="142.5" y="-106" font-family="Helvetica,sans-Serif" font-size="10.00" fill="#111111">packet_generation++</text>
<text text-anchor="middle" x="142.5" y="-95" font-family="Helvetica,sans-Serif" font-size="10.00" fill="#111111">(Core1 unblocked)</text>
</g>
<!-- PHASE&#45;&gt;PG -->
<g id="edge7" class="edge">
<title>PHASE&#45;&gt;PG</title>
<path fill="none" stroke="#555555" d="M142.5,-161.83C142.5,-153.68 142.5,-144.2 142.5,-135.3"/>
<polygon fill="#555555" stroke="#555555" points="146,-135.23 142.5,-125.23 139,-135.23 146,-135.23"/>
</g>
<!-- C1 -->
<g id="node8" class="node">
<title>C1</title>
<polygon fill="#f4f4f8" stroke="#3a3a8a" points="206,-44 79,-44 79,0 206,0 206,-44"/>
<text text-anchor="middle" x="142.5" y="-25" font-family="Helvetica,sans-Serif" font-size="10.00" fill="#111111">Core1</text>
<text text-anchor="middle" x="142.5" y="-14" font-family="Helvetica,sans-Serif" font-size="10.00" fill="#111111">wakes — do_steps()</text>
</g>
<!-- PG&#45;&gt;C1 -->
<g id="edge8" class="edge">
<title>PG&#45;&gt;C1</title>
<path fill="none" stroke="#555555" d="M142.5,-80.83C142.5,-72.68 142.5,-63.2 142.5,-54.3"/>
<polygon fill="#555555" stroke="#555555" points="146,-54.23 142.5,-44.23 139,-54.23 146,-54.23"/>
</g>
</g>
</svg>
